<svg width="467" height="383" viewBox="0 0 467 383" fill="none" xmlns="http://www.w3.org/2000/svg">
<path d="M287 330.5C287 359.495 263.495 383 234.5 383C205.505 383 182 359.495 182 330.5C182 301.505 205.505 278 234.5 278C263.495 278 287 301.505 287 330.5Z" fill="#FF0000"/>
<path d="M245.06 330.2H224.94L230.49 27.8H239.51L245.06 330.2Z" fill="url(#paint0_linear_1_39)"/>
<path d="M194.73 77.16L184.69 74.34V7.27099L194.73 10.087V77.16Z" fill="#FF0000"/>
<path d="M217.88 85.61L207.84 82.79V15.722L217.88 18.538V85.61Z" fill="#FF0000"/>
<path d="M230.11 50.05L174.75 33.15V25.437L230.19 42.34L230.11 50.05Z" fill="#FF0000"/>
<path d="M274.76 76.7L284.64 73.92V7.85999L274.76 10.634V76.7Z" fill="#FF0000"/>
<path d="M251.96 85.02L261.84 82.25V16.183L251.96 18.958V85.02Z" fill="#FF0000"/>
<path d="M239.91 50L294.43 33.35V25.753L239.82 42.4L239.91 50Z" fill="#FF0000"/>
<path d="M297.17 16.845H172.82V27.8H297.17V16.845Z" fill="#FF0000"/>
<path d="M177.259 0.924988H160.96V64.388H177.259V0.924988Z" fill="#FFA4A4"/>
<path d="M221.819 0.924988H205.52V64.388H221.819V0.924988Z" fill="#FFA4A4"/>
<path d="M309.039 0.924988H292.74V64.388H309.039V0.924988Z" fill="#FFA4A4"/>
<path d="M264.479 0.924988H248.18V64.388H264.479V0.924988Z" fill="#FFA4A4"/>
<path d="M32.64 211.89C22.652 189.001 22.652 150.003 32.64 119.634H30.39C20.402 150.003 20.402 189.001 30.39 211.89H32.64Z" fill="#FF0000"/>
<path d="M54.28 204.89C45.79 185.431 45.79 152.283 54.28 126.47H52.03C43.54 152.282 43.54 185.431 52.03 204.89H54.28Z" fill="#FF0000"/>
<path d="M75.22 196.94C68.429 181.374 68.429 154.856 75.22 134.206H72.97C66.179 154.856 66.179 181.374 72.97 196.94H75.22Z" fill="#FF0000"/>
<path d="M96.15 189.01C91.058 177.332 91.058 157.446 96.15 141.957H93.9C88.808 157.445 88.808 177.332 93.9 189.01H96.15Z" fill="#FF0000"/>
<path d="M117.2 181.87C113.636 173.7 113.636 159.774 117.2 148.934H114.95C111.386 159.774 111.386 173.7 114.95 181.87H117.2Z" fill="#FF0000"/>
<path d="M138.48 175.79C136.164 170.479 136.164 161.427 138.48 154.38H136.23C133.914 161.427 133.914 170.48 136.23 175.79H138.48Z" fill="#FF0000"/>
<path d="M10.93 217.08C-0.167994 191.644 -0.167994 148.312 10.93 114.57H8.68001C-2.41799 148.312 -2.41799 191.644 8.68001 217.08H10.93Z" fill="#FF0000"/>
<path d="M159.99 171.28C158.597 168.094 158.597 162.663 159.99 158.436H157.74C156.347 162.663 156.347 168.094 157.74 171.28H159.99Z" fill="#FF0000"/>
<path d="M434.54 211.89C444.528 189.001 444.528 150.003 434.54 119.634H436.79C446.778 150.003 446.778 189.001 436.79 211.89H434.54Z" fill="#FF0000"/>
<path d="M412.9 204.89C421.39 185.431 421.39 152.283 412.9 126.47H415.15C423.64 152.282 423.64 185.431 415.15 204.89H412.9Z" fill="#FF0000"/>
<path d="M391.97 196.94C398.761 181.374 398.761 154.856 391.97 134.206H394.22C401.011 154.856 401.011 181.374 394.22 196.94H391.97Z" fill="#FF0000"/>
<path d="M371.04 189.01C376.132 177.332 376.132 157.446 371.04 141.957H373.29C378.382 157.445 378.382 177.332 373.29 189.01H371.04Z" fill="#FF0000"/>
<path d="M349.98 181.87C353.544 173.7 353.544 159.774 349.98 148.934H352.23C355.794 159.774 355.794 173.7 352.23 181.87H349.98Z" fill="#FF0000"/>
<path d="M328.71 175.79C331.026 170.479 331.026 161.427 328.71 154.38H330.96C333.276 161.427 333.276 170.48 330.96 175.79H328.71Z" fill="#FF0000"/>
<path d="M456.25 217.08C467.348 191.644 467.348 148.312 456.25 114.57H458.5C469.598 148.312 469.598 191.644 458.5 217.08H456.25Z" fill="#FF0000"/>
<path d="M307.19 171.28C308.583 168.094 308.583 162.663 307.19 158.436H309.44C310.833 162.663 310.833 168.094 309.44 171.28H307.19Z" fill="#FF0000"/>
<defs>
<linearGradient id="paint0_linear_1_39" x1="0.356506" y1="191.962" x2="466.823" y2="191.962" gradientUnits="userSpaceOnUse">
<stop stop-color="#E6E6E6"/>
<stop offset="1" stop-color="#FF0000"/>
</linearGradient>
</defs>
</svg>
