<svg width="32" height="32" viewBox="0 0 32 32" fill="none" xmlns="http://www.w3.org/2000/svg">
<path d="M8.73804 30.7459L15.738 10.7459L22.738 30.7459L15.738 22.2459L8.73804 30.7459Z" fill="#FF0000" stroke="#302B38" stroke-width="1.5"/>
<path d="M13.238 14.2459C11.238 11.7459 11.2229 9.94319 12.2379 8.24595C14.032 5.24595 18.8423 5.74595 19.738 9.74595C19.9996 10.9139 19.7381 12.746 18.2379 14.2459" stroke="#302B38" stroke-width="1.5"/>
<path d="M11.8581 16.746C8.70753 12.7075 8.63915 9.98766 10.238 7.24595C13.0642 2.3998 20.8269 3.28441 22.238 9.74595C22.6501 11.6327 22.0978 14.3229 19.7346 16.746" stroke="#302B38" stroke-width="1.5"/>
<path d="M10.6643 18.746C6.54435 13.3613 6.14731 9.90156 8.23817 6.24595C11.9339 -0.215588 22.3928 0.630559 24.238 9.24595C24.7768 11.7616 24.0547 15.5152 20.9643 18.746" stroke="#302B38" stroke-width="1.5"/>
</svg>
