<svg xmlns="http://www.w3.org/2000/svg" viewBox="0 0 32 32"><title>Artboard-1</title><g id="Pointer-2" data-name="Pointer"><ellipse cx="16" cy="26" rx="8" ry="4" style="fill:#39c3fc"/><circle cx="16" cy="7" r="5" style="fill:#1974d8"/><path d="M17,21.0291V12.91a6,6,0,1,0-2,0v8.1194c-4.6249.26-8,2.3089-8,4.9709,0,2.8506,3.8691,5,9,5s9-2.1494,9-5C25,23.338,21.6249,21.2888,17,21.0291ZM12,7a4,4,0,1,1,4,4A4.0045,4.0045,0,0,1,12,7Zm4,22c-4.0063,0-7-1.584-7-3,0-1.295,2.5073-2.7267,6-2.9626V26a1,1,0,0,0,2,0V23.0374c3.4927.2359,6,1.6676,6,2.9626C23,27.416,20.0063,29,16,29Z" style="fill:#302b38"/></g></svg>