<svg xmlns="http://www.w3.org/2000/svg" viewBox="0 0 32 32"><title>Artboard-6</title><g id="Pin-2" data-name="Pin"><path d="M9.207,19.7412A9.81,9.81,0,0,1,7.8379,8.95a9.0181,9.0181,0,0,1,7.1289-4.8975,10.35,10.35,0,0,1,2.0664,0A9.0181,9.0181,0,0,1,24.1621,8.95,9.81,9.81,0,0,1,22.793,19.7412L16,28Z" style="fill:#fb5968"/><circle cx="16" cy="13" r="4" style="fill:#d8304c"/><path d="M25.0464,8.4834a10,10,0,0,0-7.9116-5.4258,11.3644,11.3644,0,0,0-2.2691,0A10.0027,10.0027,0,0,0,6.9536,8.4829a10.8062,10.8062,0,0,0,1.481,11.8936l6.7929,8.2588a1,1,0,0,0,1.545,0l6.7929-8.2588A10.8055,10.8055,0,0,0,25.0464,8.4834ZM22.0205,19.106,16,26.4258l-6.02-7.32a8.9283,8.9283,0,0,1-1.2573-9.69,8.0328,8.0328,0,0,1,6.3462-4.37A9.16,9.16,0,0,1,16,5a9.0341,9.0341,0,0,1,.9321.0474,8.0311,8.0311,0,0,1,6.3457,4.3691A8.9283,8.9283,0,0,1,22.0205,19.106Z" style="fill:#302b38"/><path d="M16,8a5,5,0,1,0,5,5A5.0059,5.0059,0,0,0,16,8Zm0,8a3,3,0,1,1,3-3A3.0033,3.0033,0,0,1,16,16Z" style="fill:#302b38"/></g></svg>